<svg xmlns="http://www.w3.org/2000/svg" width="133.802" height="26.811" viewBox="0 0 133.802 26.811">
  <g id="logoipsum-logo-12" transform="translate(-1.987 -1.57)">
    <path id="パス_9" data-name="パス 9" d="M20.99,23.759,3.05,11.384C1.232,10.13,1.85,7.519,4.117,6.9L23.184,1.73A2.7,2.7,0,0,1,26.8,4.222L25.67,21.771C25.536,23.854,22.808,25.013,20.99,23.759Z" fill="#f5f5f5"/>
    <path id="パス_10" data-name="パス 10" d="M15.3,26.814,4.731,6.145A2.883,2.883,0,0,1,7.738,1.984L27.325,5.007a2.883,2.883,0,0,1,2.127,4.162L20.429,26.815a2.883,2.883,0,0,1-5.129,0Z" fill="#333"/>
    <path id="パス_11" data-name="パス 11" d="M26.752,4.918,16.988,3.411,5,6.666l4.785,9.361,11.2,7.732a2.886,2.886,0,0,0,.806.383l4.256-8.323Z" fill="#9aa4b7"/>
    <path id="パス_12" data-name="パス 12" d="M76.209,7.334a1.835,1.835,0,1,1,1.835,1.835,1.854,1.854,0,0,1-1.835-1.835Zm.306,2.732h3.059V20.26H76.515Z" fill="#333"/>
    <path id="パス_13" data-name="パス 13" d="M92.784,15.163a5.119,5.119,0,0,1-4.872,5.383A3.829,3.829,0,0,1,84.874,19.3v5.036H81.816V10.066h3.058v.958a3.829,3.829,0,0,1,3.038-1.243,5.118,5.118,0,0,1,4.872,5.382Zm-3.058,0A2.427,2.427,0,1,0,87.3,17.651a2.327,2.327,0,0,0,2.426-2.488Z" fill="#333"/>
    <path id="パス_14" data-name="パス 14" d="M102.223,17.2c0,2.345-2.039,3.344-4.241,3.344A4.463,4.463,0,0,1,93.6,18.117l2.65-1.508a1.675,1.675,0,0,0,1.733,1.2c.734,0,1.1-.225,1.1-.632,0-1.122-5.015-.53-5.015-4.058,0-2.222,1.875-3.343,4-3.343a4.461,4.461,0,0,1,3.975,2.181l-2.609,1.407a1.481,1.481,0,0,0-1.366-.9c-.53,0-.856.2-.856.571C97.208,14.2,102.223,13.43,102.223,17.2Z" fill="#333"/>
    <path id="パス_15" data-name="パス 15" d="M113.4,10.066V20.26h-3.058V19.3a3.49,3.49,0,0,1-2.916,1.244c-2.059,0-3.812-1.468-3.812-4.221V10.066h3.058v5.811a1.681,1.681,0,0,0,1.774,1.855c1.121,0,1.9-.652,1.9-2.1V10.066Z" fill="#333"/>
    <path id="パス_16" data-name="パス 16" d="M130.928,14v6.26H127.87V14.266c0-1.019-.49-1.672-1.468-1.672-1.02,0-1.59.714-1.59,1.917V20.26h-3.059V14.266c0-1.019-.489-1.672-1.468-1.672-1.019,0-1.59.714-1.59,1.917V20.26h-3.058V10.066H118.7V11a3.128,3.128,0,0,1,2.732-1.223,3.033,3.033,0,0,1,2.671,1.345,3.359,3.359,0,0,1,2.957-1.345C129.4,9.781,130.928,11.452,130.928,14Z" fill="#333"/>
    <path id="パス_17" data-name="パス 17" d="M133.519,10a2.27,2.27,0,1,0-2.27-2.27A2.27,2.27,0,0,0,133.519,10Z" fill="#333"/>
    <path id="パス_18" data-name="パス 18" d="M34.457,5.377h3.059V20.26H34.457Zm4.791,9.786a5.4,5.4,0,1,1,5.4,5.383,5.343,5.343,0,0,1-5.4-5.383Zm7.748,0a2.345,2.345,0,1,0-2.345,2.406A2.287,2.287,0,0,0,47,15.163Zm15.249-5.1v9.685c0,3.425-2.671,4.872-5.382,4.872a5.212,5.212,0,0,1-4.832-2.467l2.609-1.509a2.331,2.331,0,0,0,2.325,1.285,2.032,2.032,0,0,0,2.3-2.181V18.81a3.622,3.622,0,0,1-2.977,1.325,5.181,5.181,0,0,1,0-10.357A3.622,3.622,0,0,1,59.265,11.1v-1.04Zm-2.976,4.893A2.47,2.47,0,1,0,56.8,17.325a2.308,2.308,0,0,0,2.469-2.366Zm4.708.2a5.4,5.4,0,1,1,5.4,5.383,5.343,5.343,0,0,1-5.4-5.376Zm7.748,0a2.346,2.346,0,1,0-2.345,2.406,2.287,2.287,0,0,0,2.345-2.4Z" fill="#333"/>
  </g>
</svg>
