<?xml version="1.0" encoding="utf-8"?><svg version="1.1" xmlns="http://www.w3.org/2000/svg" xmlns:xlink="http://www.w3.org/1999/xlink" x="0px" y="0px" width="20px" height="20px" viewBox="0 0 20 20"><g style="fill:#0F7994;"><circle style="fill:none;" cx="10" cy="10" r="10"/><path d="M10,20C4.49,20,0,15.51,0,10C0,4.49,4.49,0,10,0c5.51,0,10,4.49,10,10C20,15.51,15.51,20,10,20zM10,1c-4.96,0-9,4.04-9,9c0,4.96,4.04,9,9,9c4.96,0,9-4.04,9-9C19,5.04,14.96,1,10,1z"/><path d="M9,15c-0.25,0-0.49-0.09-0.68-0.27c-0.4-0.38-0.42-1.01-0.05-1.41l3.09-3.29L8.27,6.68C7.89,6.27,7.92,5.64,8.32,5.27c0.41-0.38,1.04-0.35,1.41,0.06l3.72,4.03c0.36,0.38,0.35,0.98,0,1.36l-3.72,3.97C9.53,14.89,9.27,15,9,15z"/></g></svg>